<?xml version="1.0" encoding="UTF-8"?>
<svg version="1.1" xmlns="http://www.w3.org/2000/svg" width="500" height="500">
<path d="M0 0 C165 0 330 0 500 0 C500 165 500 330 500 500 C335 500 170 500 0 500 C0 335 0 170 0 0 Z " fill="#FEFEFE" transform="translate(0,0)"/>
<path d="M0 0 C2.4374474 2.52662231 3.80435735 4.78139074 5.3046875 7.94921875 C5.80355469 9.00109375 6.30242187 10.05296875 6.81640625 11.13671875 C12.2421875 23.2666845 12.2421875 23.2666845 12.2421875 26.32421875 C12.9021875 26.32421875 13.5621875 26.32421875 14.2421875 26.32421875 C14.2421875 27.64421875 14.2421875 28.96421875 14.2421875 30.32421875 C12.9221875 30.32421875 11.6021875 30.32421875 10.2421875 30.32421875 C10.25378906 31.17886719 10.26539063 32.03351563 10.27734375 32.9140625 C10.28636719 34.01878906 10.29539062 35.12351563 10.3046875 36.26171875 C10.31628906 37.36386719 10.32789063 38.46601563 10.33984375 39.6015625 C10.2421875 42.32421875 10.2421875 42.32421875 9.2421875 43.32421875 C7.9840625 43.40671875 6.7259375 43.48921875 5.4296875 43.57421875 C1.8784546 43.95038166 1.4001498 44.16230739 -1.2578125 46.88671875 C-1.7528125 47.69109375 -2.2478125 48.49546875 -2.7578125 49.32421875 C-2.4278125 47.67421875 -2.0978125 46.02421875 -1.7578125 44.32421875 C-3.23386501 45.80027126 -3.2905185 47.32992706 -3.73046875 49.359375 C-3.90771484 50.16826172 -4.08496094 50.97714844 -4.26757812 51.81054688 C-4.44998047 52.66068359 -4.63238281 53.51082031 -4.8203125 54.38671875 C-5.00658203 55.24072266 -5.19285156 56.09472656 -5.38476562 56.97460938 C-5.84575408 59.0904282 -6.30220531 61.20723463 -6.7578125 63.32421875 C-5.7678125 63.32421875 -4.7778125 63.32421875 -3.7578125 63.32421875 C-3.7578125 59.36421875 -3.7578125 55.40421875 -3.7578125 51.32421875 C-3.4278125 51.32421875 -3.0978125 51.32421875 -2.7578125 51.32421875 C-2.63664062 52.25105469 -2.51546875 53.17789063 -2.390625 54.1328125 C-2.22304688 55.33035156 -2.05546875 56.52789062 -1.8828125 57.76171875 C-1.72039062 58.95667969 -1.55796875 60.15164062 -1.390625 61.3828125 C-1.18179688 62.35347656 -0.97296875 63.32414062 -0.7578125 64.32421875 C-0.0978125 64.65421875 0.5621875 64.98421875 1.2421875 65.32421875 C1.5928125 66.02546875 1.9434375 66.72671875 2.3046875 67.44921875 C4.26467165 70.35758232 5.79039118 71.52874222 8.6171875 73.51171875 C15.77396252 78.88802779 18.50736756 86.21046751 19.97265625 94.8515625 C20.39269711 98.70498085 20.36712787 102.45106738 20.2421875 106.32421875 C18.9221875 106.32421875 17.6021875 106.32421875 16.2421875 106.32421875 C16.2421875 109.62421875 16.2421875 112.92421875 16.2421875 116.32421875 C9.9721875 116.32421875 3.7021875 116.32421875 -2.7578125 116.32421875 C-2.7578125 121.93421875 -2.7578125 127.54421875 -2.7578125 133.32421875 C3.8421875 133.32421875 10.4421875 133.32421875 17.2421875 133.32421875 C17.12370418 126.87693669 17.12370418 126.87693669 16.97192383 120.43041992 C16.96443115 119.62580322 16.95693848 118.82118652 16.94921875 117.9921875 C16.9335083 117.17000732 16.91779785 116.34782715 16.90161133 115.50073242 C17.2421875 113.32421875 17.2421875 113.32421875 18.5456543 111.5559082 C21.37817301 109.49948902 23.86876647 109.9691218 27.2421875 110.32421875 C29.43348694 111.53674316 29.43348694 111.53674316 31.2421875 113.32421875 C31.74339294 115.60095215 31.74339294 115.60095215 31.74389648 118.29882812 C31.75327744 119.30997681 31.76265839 120.32112549 31.77232361 121.36291504 C31.76108963 122.45358276 31.74985565 123.54425049 31.73828125 124.66796875 C31.73973648 125.78860718 31.74119171 126.90924561 31.74269104 128.06384277 C31.74103024 130.4343526 31.7294489 132.80487301 31.70874023 135.17529297 C31.67980043 138.81003479 31.68812536 142.44331773 31.70117188 146.078125 C31.69493432 148.37891336 31.68654324 150.6796971 31.67578125 152.98046875 C31.67871689 154.07113647 31.68165253 155.1618042 31.68467712 156.28552246 C31.67199295 157.29667114 31.65930878 158.30781982 31.64624023 159.34960938 C31.64083725 160.23990845 31.63543427 161.13020752 31.62986755 162.04748535 C31.16499838 164.77752825 30.42129592 165.66652533 28.2421875 167.32421875 C26.3046875 167.72265625 26.3046875 167.72265625 24.2421875 167.69921875 C23.5615625 167.70695313 22.8809375 167.7146875 22.1796875 167.72265625 C19.63231089 167.19880058 18.84686671 166.35341033 17.2421875 164.32421875 C16.90161133 162.14770508 16.90161133 162.14770508 16.94921875 159.65625 C16.96045776 158.44932495 16.96045776 158.44932495 16.97192383 157.21801758 C16.99923584 156.20118896 17.02654785 155.18436035 17.0546875 154.13671875 C17.1165625 150.89859375 17.1784375 147.66046875 17.2421875 144.32421875 C10.3121875 144.32421875 3.3821875 144.32421875 -3.7578125 144.32421875 C-3.67872708 151.14542286 -3.67872708 151.14542286 -3.57763672 157.96630859 C-3.5726416 158.81402832 -3.56764648 159.66174805 -3.5625 160.53515625 C-3.55202637 161.40446777 -3.54155273 162.2737793 -3.53076172 163.16943359 C-3.7578125 165.32421875 -3.7578125 165.32421875 -5.7578125 167.32421875 C-13.06216033 167.78798687 -13.06216033 167.78798687 -16.7578125 165.32421875 C-17.11857605 163.22348022 -17.11857605 163.22348022 -17.09838867 160.59912109 C-17.09804878 159.12782242 -17.09804878 159.12782242 -17.09770203 157.62680054 C-17.08221817 156.56530792 -17.06673431 155.50381531 -17.05078125 154.41015625 C-17.04653641 153.32537994 -17.04229156 152.24060364 -17.03791809 151.12295532 C-17.0210855 147.64812708 -16.98342439 144.17387257 -16.9453125 140.69921875 C-16.93027161 138.34766461 -16.91658217 135.9961014 -16.90429688 133.64453125 C-16.87116704 127.87089702 -16.82092232 122.09759886 -16.7578125 116.32421875 C-19.2328125 116.81921875 -19.2328125 116.81921875 -21.7578125 117.32421875 C-21.6753125 118.04609375 -21.5928125 118.76796875 -21.5078125 119.51171875 C-21.84188792 123.27006723 -23.07917406 124.71797595 -25.7578125 127.32421875 C-28.1953125 128.32421875 -28.1953125 128.32421875 -30.7578125 128.32421875 C-31.4590625 127.84984375 -32.1603125 127.37546875 -32.8828125 126.88671875 C-37.3659412 124.45023576 -41.76635781 124.66455513 -46.7578125 125.32421875 C-51.18758921 127.46000395 -53.95394921 129.71434589 -55.7578125 134.32421875 C-56.43812361 139.33836362 -56.31149588 143.15296546 -54.1328125 147.76171875 C-50.2648996 151.93499319 -46.82552621 153.4747584 -41.1953125 153.69921875 C-37.24291738 153.58005106 -35.06241392 152.52728637 -31.7578125 150.32421875 C-29.2578125 149.76171875 -29.2578125 149.76171875 -26.7578125 150.32421875 C-21.82390134 154.93635309 -21.82390134 154.93635309 -21.6328125 158.94921875 C-23.67408242 163.25856636 -27.1466819 165.21275685 -31.3828125 167.07421875 C-39.14204991 169.71410967 -46.93404619 169.09010857 -54.33984375 165.69921875 C-62.1429774 161.26189557 -66.88910933 155.94917582 -69.9375 147.46484375 C-72.31690784 138.35511087 -71.22932327 131.25342683 -66.6640625 123.02734375 C-62.23626753 116.74858531 -56.00098786 112.69217993 -48.7578125 110.32421875 C-47.09164853 110.28328698 -45.42378304 110.27605294 -43.7578125 110.32421875 C-43.81001953 109.06931641 -43.81001953 109.06931641 -43.86328125 107.7890625 C-44.20872817 92.93484482 -41.50559721 80.07284632 -33.7578125 67.32421875 C-32.77196134 66.31026732 -31.77525032 65.3064714 -30.7578125 64.32421875 C-29.55731843 61.22414674 -29.55731843 61.22414674 -28.7578125 58.32421875 C-27.7678125 58.32421875 -26.7778125 58.32421875 -25.7578125 58.32421875 C-25.73086399 56.36596002 -25.71144032 54.40759649 -25.6953125 52.44921875 C-25.68371094 51.35867187 -25.67210937 50.268125 -25.66015625 49.14453125 C-25.56036947 46.37244329 -25.56036947 46.37244329 -26.7578125 44.32421875 C-27.8509375 43.89109375 -28.9440625 43.45796875 -30.0703125 43.01171875 C-33.76568172 41.49722317 -35.59945447 39.76160376 -37.7578125 36.32421875 C-40.71564093 28.74278127 -41.2367591 20.13384648 -38.2578125 12.44921875 C-34.94434611 6.14668127 -29.89430895 1.78319835 -23.1953125 -0.61328125 C-16.24910939 -2.339046 -6.30303483 -3.83003108 0 0 Z " fill="#80D95A" transform="translate(280.7578125,116.67578125)"/>
<path d="M0 0 C7.42412675 5.84169336 12.1721487 11.41785226 13.41015625 21.03125 C13.87533245 31.15141664 11.80647868 39.05135541 5.02734375 46.734375 C-1.83774046 53.14446337 -8.41273473 55.18648473 -17.74609375 54.9609375 C-26.17642442 53.89089553 -32.15314615 49.37195836 -37.375 42.8828125 C-42.93119489 35.57625564 -43.94376373 28.61288483 -43.0390625 19.54296875 C-41.13716362 11.61649199 -36.8057992 4.98339586 -30.171875 0.1953125 C-21.21824259 -5.16533866 -8.82926847 -5.85882684 0 0 Z " fill="#80D95A" transform="translate(149.0390625,184.45703125)"/>
<path d="M0 0 C1.24652344 -0.03673828 2.49304688 -0.07347656 3.77734375 -0.11132812 C11.98006061 -0.15030619 17.2220457 0.99515464 23.375 6.5625 C27.10347277 10.51694082 26.67655903 14.73746853 26.55859375 19.9140625 C26.375 22.5625 26.375 22.5625 25.6875 25.875 C25.10897176 28.68387729 25.10897176 28.68387729 26.8125 31.375 C29.17806049 36.20074339 29.32903684 40.6542264 27.6484375 45.77734375 C25.02823529 51.49705344 21.24603843 55.17764851 15.375 57.5625 C11.20300533 57.93591825 7.03540537 57.89188338 2.84790039 57.87817383 C0.81537708 57.87500449 -1.21570235 57.89852515 -3.24804688 57.92382812 C-5.16907227 57.92479492 -5.16907227 57.92479492 -7.12890625 57.92578125 C-8.88956421 57.93025269 -8.88956421 57.93025269 -10.68579102 57.93481445 C-13.625 57.5625 -13.625 57.5625 -15.28443909 56.35014343 C-17.05795794 53.98514882 -17.00529899 52.52894782 -17.01318359 49.58789062 C-17.02264008 48.57674194 -17.03209656 47.56559326 -17.0418396 46.52380371 C-17.03576691 45.43313599 -17.02969421 44.34246826 -17.0234375 43.21875 C-17.02630768 42.09811157 -17.02917786 40.97747314 -17.03213501 39.82287598 C-17.03417747 37.45238744 -17.02863499 35.08188212 -17.01611328 32.71142578 C-17.000063 29.07676617 -17.01595669 25.44321865 -17.03515625 21.80859375 C-17.03317385 19.50781004 -17.02933025 17.20702702 -17.0234375 14.90625 C-17.02951019 13.81558228 -17.03558289 12.72491455 -17.0418396 11.60119629 C-17.03238312 10.59004761 -17.02292664 9.57889893 -17.01318359 8.53710938 C-17.01079681 7.6468103 -17.00841003 6.75651123 -17.00595093 5.8392334 C-15.67626896 -2.10754168 -6.10734842 0.00930053 0 0 Z " fill="#80D95A" transform="translate(183.625,180.4375)"/>
<path d="M0 0 C3.96425593 2.73905709 6.61777009 5.86972996 9.4375 9.75 C10.59378906 11.3278125 10.59378906 11.3278125 11.7734375 12.9375 C12.50820313 13.948125 13.24296875 14.95875 14 16 C15.18440378 17.58565077 16.37139025 19.16938042 17.5625 20.75 C18.375 21.83333333 19.1875 22.91666667 20 24 C25.14627554 19.17175273 29.16560292 13.62770079 33.359375 7.97460938 C33.91367188 7.23662109 34.46796875 6.49863281 35.0390625 5.73828125 C35.78470459 4.73341675 35.78470459 4.73341675 36.54541016 3.70825195 C38.79843788 1.06232463 40.48149416 0.0551602 43.9375 -0.3125 C47.40506267 0.04133293 48.53323963 0.5983541 51 3 C51.50120544 5.2767334 51.50120544 5.2767334 51.50170898 7.97460938 C51.51108994 8.98575806 51.52047089 9.99690674 51.53013611 11.03869629 C51.51890213 12.12936401 51.50766815 13.22003174 51.49609375 14.34375 C51.49754898 15.46438843 51.49900421 16.58502686 51.50050354 17.73962402 C51.49884274 20.11013385 51.4872614 22.48065426 51.46655273 24.85107422 C51.43761293 28.48581604 51.44593786 32.11909898 51.45898438 35.75390625 C51.45274682 38.05469461 51.44435574 40.35547835 51.43359375 42.65625 C51.43652939 43.74691772 51.43946503 44.83758545 51.44248962 45.96130371 C51.42346336 47.47802673 51.42346336 47.47802673 51.40405273 49.02539062 C51.39864975 49.9156897 51.39324677 50.80598877 51.38768005 51.7232666 C50.92273957 54.45372827 50.17773196 55.34035523 48 57 C46.0625 57.43359375 46.0625 57.43359375 44 57.4375 C43.319375 57.45683594 42.63875 57.47617188 41.9375 57.49609375 C39.11252346 56.77276306 38.48512825 55.47247255 37 53 C36.56762695 50.15917969 36.56762695 50.15917969 36.48828125 46.921875 C36.45283203 45.76171875 36.41738281 44.6015625 36.38085938 43.40625 C36.34702148 41.59640625 36.34702148 41.59640625 36.3125 39.75 C36.27833984 38.52796875 36.24417969 37.3059375 36.20898438 36.046875 C36.12652838 33.03134154 36.05736799 30.01609806 36 27 C35.30132812 27.91523438 34.60265625 28.83046875 33.8828125 29.7734375 C32.96361862 30.97401726 32.04434356 32.17453486 31.125 33.375 C30.66480469 33.97828125 30.20460937 34.5815625 29.73046875 35.203125 C24.59901608 41.89632414 24.59901608 41.89632414 20.75 42.5625 C16.22370698 41.88355605 15.20373639 40.77237297 12.57519531 37.22290039 C10.9459876 34.92377822 9.37395155 32.59429311 7.81640625 30.24609375 C7.2860376 29.44743896 6.75566895 28.64878418 6.20922852 27.82592773 C5.81018311 27.22337158 5.4111377 26.62081543 5 26 C4.98541748 26.83249268 4.97083496 27.66498535 4.95581055 28.52270508 C4.8947137 31.61489653 4.82055444 34.70642082 4.73754883 37.7980957 C4.68798681 39.7929063 4.65348867 41.78807257 4.61914062 43.78320312 C4.58369141 45.03681641 4.54824219 46.29042969 4.51171875 47.58203125 C4.48553467 48.73936768 4.45935059 49.8967041 4.43237305 51.08911133 C4 54 4 54 2.58911133 55.8762207 C0.60344068 57.28043671 -0.58256276 57.40247088 -3 57.375 C-4.0209375 57.38660156 -4.0209375 57.38660156 -5.0625 57.3984375 C-7.61900374 56.87270488 -8.39368634 56.04313923 -10 54 C-10.38768005 51.7232666 -10.38768005 51.7232666 -10.40405273 49.02539062 C-10.41673691 48.01424194 -10.42942108 47.00309326 -10.44248962 45.96130371 C-10.43955399 44.87063599 -10.43661835 43.77996826 -10.43359375 42.65625 C-10.4388356 41.53561157 -10.44407745 40.41497314 -10.44947815 39.26037598 C-10.45590463 36.88990101 -10.45455331 34.51939419 -10.44604492 32.14892578 C-10.43753296 28.51407348 -10.46629312 24.88079077 -10.49804688 21.24609375 C-10.49965882 18.94531297 -10.49908148 16.6445294 -10.49609375 14.34375 C-10.51294472 12.70774841 -10.51294472 12.70774841 -10.53013611 11.03869629 C-10.52075516 10.02754761 -10.51137421 9.01639893 -10.50170898 7.97460938 C-10.50154282 7.0843103 -10.50137665 6.19401123 -10.50120544 5.2767334 C-10 3 -10 3 -8.15223694 1.21643066 C-5.18380256 -0.46130962 -3.36373083 -0.48053298 0 0 Z " fill="#80D95A" transform="translate(50,181)"/>
<path d="M0 0 C0.83208984 -0.00287018 1.66417969 -0.00574036 2.52148438 -0.00869751 C4.27995484 -0.01073812 6.03844801 -0.00520843 7.796875 0.00732422 C10.49009913 0.02337848 13.1818226 0.00747605 15.875 -0.01171875 C17.58333665 -0.00973632 19.29167236 -0.00589264 21 0 C22.20946289 -0.00910904 22.20946289 -0.00910904 23.44335938 -0.0184021 C29.07813966 0.05256167 29.07813966 0.05256167 31.21142578 1.80160522 C32.81569552 3.78965501 32.90374763 4.86864609 32.875 7.3984375 C32.88660156 8.419375 32.88660156 8.419375 32.8984375 9.4609375 C32.36249133 12.06710712 31.63644307 12.80743376 29.5 14.3984375 C26.58911133 14.73901367 26.58911133 14.73901367 23.08203125 14.69140625 C21.82841797 14.68173828 20.57480469 14.67207031 19.28320312 14.66210938 C17.97287109 14.63697266 16.66253906 14.61183594 15.3125 14.5859375 C13.97722837 14.57088717 12.64194063 14.55719937 11.30664062 14.54492188 C8.03735424 14.50951444 4.76887907 14.4601264 1.5 14.3984375 C1.5 17.0384375 1.5 19.6784375 1.5 22.3984375 C2.38522339 22.37487183 2.38522339 22.37487183 3.28833008 22.35083008 C5.96295586 22.28845811 8.63742864 22.24944093 11.3125 22.2109375 C12.24126953 22.18580078 13.17003906 22.16066406 14.12695312 22.13476562 C15.01962891 22.12509766 15.91230469 22.11542969 16.83203125 22.10546875 C17.65421143 22.0897583 18.4763916 22.07404785 19.32348633 22.05786133 C21.5 22.3984375 21.5 22.3984375 23.2644043 23.7019043 C25.35082031 26.5666553 24.91863892 28.98952059 24.5 32.3984375 C23.05078125 34.60546875 23.05078125 34.60546875 20.5 36.3984375 C17.40125039 36.88443493 14.37670831 36.77546003 11.25 36.6484375 C9.98929687 36.62136719 9.98929687 36.62136719 8.703125 36.59375 C6.63492605 36.54674548 4.56731559 36.47500474 2.5 36.3984375 C2.5 38.7084375 2.5 41.0184375 2.5 43.3984375 C3.30219971 43.38272705 4.10439941 43.3670166 4.9309082 43.35083008 C8.55803404 43.28855167 12.18504749 43.24946886 15.8125 43.2109375 C17.07513672 43.18580078 18.33777344 43.16066406 19.63867188 43.13476562 C20.84716797 43.12509766 22.05566406 43.11542969 23.30078125 43.10546875 C24.41622314 43.0897583 25.53166504 43.07404785 26.6809082 43.05786133 C29.5 43.3984375 29.5 43.3984375 31.36254883 44.7956543 C32.77791174 46.79004312 32.90261946 47.96792503 32.875 50.3984375 C32.88660156 51.419375 32.88660156 51.419375 32.8984375 52.4609375 C32.37985818 54.98265654 31.47532127 55.78005129 29.5 57.3984375 C26.59330547 57.68464031 23.90547601 57.79490542 21 57.76171875 C19.75186523 57.76246651 19.75186523 57.76246651 18.47851562 57.76322937 C16.72002778 57.76088986 14.96153653 57.75116852 13.203125 57.73461914 C10.51011235 57.71102609 7.81808973 57.71405899 5.125 57.72070312 C3.41666076 57.71512627 1.70832569 57.70801635 0 57.69921875 C-0.80630859 57.70013016 -1.61261719 57.70104156 -2.44335938 57.70198059 C-6.30831979 57.65291695 -8.21103717 57.59107939 -11.5 55.3984375 C-11.88095093 53.20399475 -11.88095093 53.20399475 -11.88818359 50.44555664 C-11.89764008 49.41431168 -11.90709656 48.38306671 -11.9168396 47.3205719 C-11.91076691 46.20286911 -11.90469421 45.08516632 -11.8984375 43.93359375 C-11.90130768 42.78934433 -11.90417786 41.64509491 -11.90713501 40.46617126 C-11.90917949 38.04262803 -11.90362297 35.61906845 -11.89111328 33.19555664 C-11.87508055 29.47960565 -11.89094236 25.76474487 -11.91015625 22.04882812 C-11.9081736 19.69791426 -11.90432947 17.34700107 -11.8984375 14.99609375 C-11.90451019 13.88041519 -11.91058289 12.76473663 -11.9168396 11.61524963 C-11.90738312 10.58085251 -11.89792664 9.54645538 -11.88818359 8.48071289 C-11.88579681 7.56963272 -11.88341003 6.65855255 -11.88095093 5.71986389 C-11.5 3.3984375 -11.5 3.3984375 -10.21206665 1.60505676 C-7.19651907 -0.52022136 -3.55957922 -0.02680888 0 0 Z " fill="#80D95A" transform="translate(326.5,180.6015625)"/>
<path d="M0 0 C1.22203125 0.27650391 1.22203125 0.27650391 2.46875 0.55859375 C6.17385141 1.37865619 9.85895158 2.160628 13.6015625 2.78515625 C22.8432506 4.40151775 30.34696756 5.82114029 36.96875 12.99609375 C37.7525 13.82109375 38.53625 14.64609375 39.34375 15.49609375 C43.11057637 21.29121124 44.48127346 26.665251 45.15625 33.43359375 C45.2790332 34.5309082 45.2790332 34.5309082 45.40429688 35.65039062 C45.60216885 37.43123841 45.78685707 39.21354302 45.96875 40.99609375 C44.64810547 41.03476563 44.64810547 41.03476563 43.30078125 41.07421875 C41.55861328 41.15929687 41.55861328 41.15929687 39.78125 41.24609375 C38.63269531 41.2925 37.48414063 41.33890625 36.30078125 41.38671875 C32.44363103 42.09212958 30.75505801 43.29054829 27.96875 45.99609375 C26.65709743 48.11269802 26.65709743 48.11269802 25.96875 49.99609375 C24.97875 49.99609375 23.98875 49.99609375 22.96875 49.99609375 C22.535625 49.52171875 22.1025 49.04734375 21.65625 48.55859375 C19.2980594 46.37508393 17.09472439 46.34342424 13.96875 45.99609375 C14.29875 43.68609375 14.62875 41.37609375 14.96875 38.99609375 C13.8240625 38.90328125 13.8240625 38.90328125 12.65625 38.80859375 C9.08919028 37.73018035 8.71746416 36.18939788 6.96875 32.99609375 C6.288125 32.62097656 5.6075 32.24585938 4.90625 31.859375 C2.96875 29.99609375 2.96875 29.99609375 2.47265625 26.125 C2.47132908 24.60273986 2.49164118 23.08033908 2.53125 21.55859375 C2.52416016 20.79482422 2.51707031 20.03105469 2.50976562 19.24414062 C2.5585979 14.92811875 2.75351432 12.19427248 5.96875 8.99609375 C3.61101841 10.71252235 2.15642389 12.10269685 1.54492188 15.01367188 C1.35095599 17.42905763 1.26039121 19.82333269 1.21875 22.24609375 C1.18910156 23.0865625 1.15945312 23.92703125 1.12890625 24.79296875 C1.05843364 26.86016525 1.01130061 28.92813408 0.96875 30.99609375 C0.02 31.42921875 -0.92875 31.86234375 -1.90625 32.30859375 C-5.23166937 33.78911576 -5.23166937 33.78911576 -7.03125 36.99609375 C-9.65625 37.18359375 -9.65625 37.18359375 -12.03125 36.99609375 C-12.85479582 14.50871755 -12.85479582 14.50871755 -5.84375 6.49609375 C-5.245625 6.00109375 -4.6475 5.50609375 -4.03125 4.99609375 C-3.70125 4.66609375 -3.37125 4.33609375 -3.03125 3.99609375 C-3.69125 3.66609375 -4.35125 3.33609375 -5.03125 2.99609375 C-2.64862805 -0.00509352 -2.64862805 -0.00509352 0 0 Z " fill="#F2F2F2" transform="translate(254.03125,181.00390625)"/>
<path d="M0 0 C0.99 0 1.98 0 3 0 C3 5.66666667 3 11.33333333 3 17 C3.433125 16.505 3.86625 16.01 4.3125 15.5 C6 14 6 14 9 14 C9.433125 14.94875 9.86625 15.8975 10.3125 16.875 C11.79302201 20.20041937 11.79302201 20.20041937 15 22 C19.07490752 22.33957563 20.53001271 22.31332486 24 20 C26.6875 19.875 26.6875 19.875 29 20 C28.690625 20.598125 28.38125 21.19625 28.0625 21.8125 C26.89790296 24.08956772 26.89790296 24.08956772 26 27 C24.35 27.33 22.7 27.66 21 28 C21.0825 28.721875 21.165 29.44375 21.25 30.1875 C20.91592458 33.94584848 19.67863844 35.3937572 17 38 C14.5625 39 14.5625 39 12 39 C11.29875 38.525625 10.5975 38.05125 9.875 37.5625 C5.3918713 35.12601701 0.99145469 35.34033638 -4 36 C-8.42977671 38.1357852 -11.19613671 40.39012714 -13 45 C-13.68031111 50.01414487 -13.55368338 53.82874671 -11.375 58.4375 C-7.5070871 62.61077444 -4.06771371 64.15053965 1.5625 64.375 C5.51489512 64.25583231 7.69539858 63.20306762 11 61 C13.5 60.4375 13.5 60.4375 16 61 C20.93391116 65.61213434 20.93391116 65.61213434 21.125 69.625 C19.08373008 73.93434761 15.6111306 75.8885381 11.375 77.75 C3.61576259 80.38989092 -4.17623369 79.76588982 -11.58203125 76.375 C-19.3851649 71.93767682 -24.13129683 66.62495707 -27.1796875 58.140625 C-29.55909534 49.03089212 -28.47151077 41.92920808 -23.90625 33.703125 C-19.47845503 27.42436656 -13.24317536 23.36796118 -6 21 C-4.33383603 20.95906823 -2.66597054 20.95183419 -1 21 C-1.01160156 20.07058594 -1.02320313 19.14117187 -1.03515625 18.18359375 C-1.12478032 5.90509666 -1.12478032 5.90509666 0 0 Z " fill="#81D55D" transform="translate(238,206)"/>
<path d="M0 0 C2.17578125 0.98046875 2.17578125 0.98046875 4 3 C4.64279652 5.88511887 4.69679826 8.73964016 4.75 11.6875 C4.77964844 12.48478516 4.80929687 13.28207031 4.83984375 14.10351562 C4.91044082 16.06846749 4.95749708 18.03423977 5 20 C9.90775605 14.56919512 14.79533793 9.12500021 19.58984375 3.59375 C20.68415145 2.3569701 21.83228131 1.16771869 23 0 C26.37375813 0.18402317 29.0239814 0.40179505 31.9375 2.1875 C33.5327452 4.90880064 33.30651908 6.891226 33 10 C31.34765625 12.33349609 31.34765625 12.33349609 29.0625 14.5234375 C28.25039063 15.31621094 27.43828125 16.10898438 26.6015625 16.92578125 C25.74304688 17.73402344 24.88453125 18.54226562 24 19.375 C23.14148438 20.20644531 22.28296875 21.03789062 21.3984375 21.89453125 C19.27847495 23.94382838 17.14581016 25.97784025 15 28 C19.562983 33.50895502 24.43583507 38.31898495 29.70703125 43.15625 C32.45185065 46.56038717 32.98984685 48.65445034 33 53 C31.41828486 55.66878482 29.74588584 56.34210666 27 58 C24.9375 58.125 24.9375 58.125 23 57 C19.10443925 53.24088621 15.42286829 49.28693958 11.75 45.3125 C11.20859375 44.73177734 10.6671875 44.15105469 10.109375 43.55273438 C6.11915391 39.23830782 6.11915391 39.23830782 5 37 C4.97421875 38.10859375 4.9484375 39.2171875 4.921875 40.359375 C4.86558344 41.82295547 4.80823633 43.28649562 4.75 44.75 C4.72873047 45.84441406 4.72873047 45.84441406 4.70703125 46.9609375 C4.54772285 50.46572236 4.27038045 52.63061515 2.17578125 55.4921875 C-0.96592217 57.66938233 -3.27003677 57.40690508 -7 57 C-7.99 56.34 -8.98 55.68 -10 55 C-10.38095093 52.80555725 -10.38095093 52.80555725 -10.38818359 50.04711914 C-10.39764008 49.01587418 -10.40709656 47.98462921 -10.4168396 46.9221344 C-10.41076691 45.80443161 -10.40469421 44.68672882 -10.3984375 43.53515625 C-10.40130768 42.39090683 -10.40417786 41.24665741 -10.40713501 40.06773376 C-10.40917949 37.64419053 -10.40362297 35.22063095 -10.39111328 32.79711914 C-10.37508055 29.08116815 -10.39094236 25.36630737 -10.41015625 21.65039062 C-10.4081736 19.29947676 -10.40432947 16.94856357 -10.3984375 14.59765625 C-10.40451019 13.48197769 -10.41058289 12.36629913 -10.4168396 11.21681213 C-10.40738312 10.18241501 -10.39792664 9.14801788 -10.38818359 8.08227539 C-10.38579681 7.17119522 -10.38341003 6.26011505 -10.38095093 5.32142639 C-10 3 -10 3 -8.69058228 1.20579529 C-5.85504164 -0.81663307 -3.35781833 -0.35345456 0 0 Z " fill="#80D95A" transform="translate(427,181)"/>
<path d="M0 0 C2.9845575 3.49619592 4.55567225 7.29604534 6.1875 11.5625 C3.5475 12.5525 0.9075 13.5425 -1.8125 14.5625 C-1.1525 15.2225 -0.4925 15.8825 0.1875 16.5625 C-0.3075 18.0475 -0.3075 18.0475 -0.8125 19.5625 C1.1675 19.5625 3.1475 19.5625 5.1875 19.5625 C5.1875 17.9125 5.1875 16.2625 5.1875 14.5625 C8.1875 15.5625 8.1875 15.5625 9.3203125 17.77734375 C9.81144531 19.12505859 9.81144531 19.12505859 10.3125 20.5 C10.64507812 21.39589844 10.97765625 22.29179687 11.3203125 23.21484375 C11.60648437 23.98957031 11.89265625 24.76429688 12.1875 25.5625 C12.6825 26.5525 12.6825 26.5525 13.1875 27.5625 C11.8675 27.5625 10.5475 27.5625 9.1875 27.5625 C9.1875 31.8525 9.1875 36.1425 9.1875 40.5625 C-5.00711883 41.78940583 -5.00711883 41.78940583 -9.43359375 38.78125 C-11.12611959 36.78259163 -12.54528282 34.85166652 -13.8125 32.5625 C-13.4825 33.18125 -13.1525 33.8 -12.8125 34.4375 C-11.8125 36.5625 -11.8125 36.5625 -11.8125 38.5625 C-16.11966788 40.18256768 -19.83743146 40.90842955 -24.4375 41 C-26.09652344 41.05994141 -26.09652344 41.05994141 -27.7890625 41.12109375 C-30.8125 40.5625 -30.8125 40.5625 -33.0859375 38.34765625 C-37.61602842 31.04006615 -37.50625684 23.9231593 -36.8125 15.5625 C-35.42948917 9.85539203 -32.07209759 6.09670675 -27.28125 2.81640625 C-19.71010002 -1.02906708 -7.94363283 -4.060079 0 0 Z " fill="#34343C" transform="translate(279.8125,117.4375)"/>
<path d="M0 0 C2.23046875 1.41015625 2.23046875 1.41015625 3.23046875 2.41015625 C3.702263 5.80707488 3.35918924 7.20038953 1.54296875 10.16015625 C-1.05629261 12.6891673 -2.16087215 13.41015625 -5.76953125 13.41015625 C-6.47078125 12.93578125 -7.17203125 12.46140625 -7.89453125 11.97265625 C-12.37765995 9.53617326 -16.77807656 9.75049263 -21.76953125 10.41015625 C-26.19930796 12.54594145 -28.96566796 14.80028339 -30.76953125 19.41015625 C-31.44984236 24.42430112 -31.32321463 28.23890296 -29.14453125 32.84765625 C-25.27661835 37.02093069 -21.83724496 38.5606959 -16.20703125 38.78515625 C-12.25463613 38.66598856 -10.07413267 37.61322387 -6.76953125 35.41015625 C-4.26953125 34.84765625 -4.26953125 34.84765625 -1.76953125 35.41015625 C3.16437991 40.02229059 3.16437991 40.02229059 3.35546875 44.03515625 C1.31419883 48.34450386 -2.15840065 50.29869435 -6.39453125 52.16015625 C-14.15376866 54.80004717 -21.94576494 54.17604607 -29.3515625 50.78515625 C-37.15469615 46.34783307 -41.90082808 41.03511332 -44.94921875 32.55078125 C-47.32862659 23.44104837 -46.24104202 16.33936433 -41.67578125 8.11328125 C-38.67358195 3.8560642 -35.19467736 1.09348953 -30.76953125 -1.58984375 C-29.71765625 -2.22921875 -28.66578125 -2.86859375 -27.58203125 -3.52734375 C-17.39434885 -6.36653393 -9.15217893 -5.11409734 0 0 Z " fill="#81D95B" transform="translate(408.76953125,185.58984375)"/>
<path d="M0 0 C2.4374474 2.52662231 3.80435735 4.78139074 5.3046875 7.94921875 C5.80355469 9.00109375 6.30242187 10.05296875 6.81640625 11.13671875 C12.2421875 23.2666845 12.2421875 23.2666845 12.2421875 26.32421875 C12.9021875 26.32421875 13.5621875 26.32421875 14.2421875 26.32421875 C14.2421875 27.64421875 14.2421875 28.96421875 14.2421875 30.32421875 C12.9221875 30.32421875 11.6021875 30.32421875 10.2421875 30.32421875 C10.25378906 31.17886719 10.26539063 32.03351563 10.27734375 32.9140625 C10.28636719 34.01878906 10.29539062 35.12351563 10.3046875 36.26171875 C10.31628906 37.36386719 10.32789063 38.46601563 10.33984375 39.6015625 C10.2421875 42.32421875 10.2421875 42.32421875 9.2421875 43.32421875 C7.9840625 43.40671875 6.7259375 43.48921875 5.4296875 43.57421875 C1.8784546 43.95038166 1.4001498 44.16230739 -1.2578125 46.88671875 C-1.7528125 47.69109375 -2.2478125 48.49546875 -2.7578125 49.32421875 C-2.4278125 47.67421875 -2.0978125 46.02421875 -1.7578125 44.32421875 C-3.23386501 45.80027126 -3.2905185 47.32992706 -3.73046875 49.359375 C-3.90771484 50.16826172 -4.08496094 50.97714844 -4.26757812 51.81054688 C-4.44998047 52.66068359 -4.63238281 53.51082031 -4.8203125 54.38671875 C-5.00658203 55.24072266 -5.19285156 56.09472656 -5.38476562 56.97460938 C-5.84575408 59.0904282 -6.30220531 61.20723463 -6.7578125 63.32421875 C-5.7678125 63.32421875 -4.7778125 63.32421875 -3.7578125 63.32421875 C-3.7578125 59.36421875 -3.7578125 55.40421875 -3.7578125 51.32421875 C-3.4278125 51.32421875 -3.0978125 51.32421875 -2.7578125 51.32421875 C-2.63664062 52.25105469 -2.51546875 53.17789063 -2.390625 54.1328125 C-2.13925781 55.92912109 -2.13925781 55.92912109 -1.8828125 57.76171875 C-1.72039062 58.95667969 -1.55796875 60.15164062 -1.390625 61.3828125 C-1.18179688 62.35347656 -0.97296875 63.32414062 -0.7578125 64.32421875 C0.2321875 64.81921875 0.2321875 64.81921875 1.2421875 65.32421875 C2.248615 66.98701202 3.24804157 68.65405359 4.2421875 70.32421875 C5.82464025 72.0757104 5.82464025 72.0757104 7.2421875 73.32421875 C4.2421875 73.32421875 4.2421875 73.32421875 1.28515625 71.99609375 C-3.75633462 69.74365368 -9.06636411 68.72272447 -14.4453125 67.57421875 C-15.47720703 67.34089844 -16.50910156 67.10757813 -17.57226562 66.8671875 C-19.06209961 66.54427734 -19.06209961 66.54427734 -20.58203125 66.21484375 C-21.48010498 66.01922852 -22.37817871 65.82361328 -23.3034668 65.62207031 C-25.79004552 65.32030705 -27.39944315 65.54256029 -29.7578125 66.32421875 C-29.7578125 66.65421875 -29.7578125 66.98421875 -29.7578125 67.32421875 C-26.7878125 67.32421875 -23.8178125 67.32421875 -20.7578125 67.32421875 C-20.7578125 67.65421875 -20.7578125 67.98421875 -20.7578125 68.32421875 C-21.44488281 68.45699219 -22.13195312 68.58976562 -22.83984375 68.7265625 C-24.19142578 68.99146484 -24.19142578 68.99146484 -25.5703125 69.26171875 C-26.91029297 69.52275391 -26.91029297 69.52275391 -28.27734375 69.7890625 C-30.87178421 70.30163028 -30.87178421 70.30163028 -33.7578125 71.32421875 C-34.74602215 73.3543232 -34.74602215 73.3543232 -35.3828125 75.76171875 C-36.72593999 80.26047373 -36.72593999 80.26047373 -37.7578125 82.32421875 C-37.90848464 83.77074295 -38.00642286 85.22301215 -38.07421875 86.67578125 C-38.11611328 87.5265625 -38.15800781 88.37734375 -38.20117188 89.25390625 C-38.24048828 90.14335937 -38.27980469 91.0328125 -38.3203125 91.94921875 C-38.36349609 92.84640625 -38.40667969 93.74359375 -38.45117188 94.66796875 C-38.55738111 96.88656158 -38.65942444 99.10526755 -38.7578125 101.32421875 C-33.86596545 100.61252863 -32.18767691 98.84434275 -28.7578125 95.32421875 C-27.7678125 95.32421875 -26.7778125 95.32421875 -25.7578125 95.32421875 C-25.84482422 93.46216797 -25.84482422 93.46216797 -25.93359375 91.5625 C-25.98050488 89.92061061 -26.02600359 88.27868043 -26.0703125 86.63671875 C-26.1331543 85.41178711 -26.1331543 85.41178711 -26.19726562 84.16210938 C-26.28978483 79.59166061 -26.24228016 77.91684663 -23.23828125 74.2421875 C-22.41972656 73.60925781 -21.60117187 72.97632813 -20.7578125 72.32421875 C-20.0978125 72.65421875 -19.4378125 72.98421875 -18.7578125 73.32421875 C-19.40492188 73.81019531 -20.05203125 74.29617187 -20.71875 74.796875 C-23.53657134 78.28946198 -23.41952549 81.46262743 -23.3828125 85.76171875 C-23.41503906 86.51259766 -23.44726562 87.26347656 -23.48046875 88.03710938 C-23.51940864 92.32041465 -23.51940864 92.32041465 -21.37792969 95.86767578 C-19.86581833 97.05627184 -18.31355414 98.19333004 -16.7578125 99.32421875 C-16.7578125 100.31421875 -16.7578125 101.30421875 -16.7578125 102.32421875 C-14.7778125 102.32421875 -12.7978125 102.32421875 -10.7578125 102.32421875 C-11.4178125 105.29421875 -12.0778125 108.26421875 -12.7578125 111.32421875 C-13.2528125 110.33421875 -13.2528125 110.33421875 -13.7578125 109.32421875 C-17.83745531 110.62576881 -17.83745531 110.62576881 -21.7578125 112.32421875 C-25.51006941 112.74113618 -27.29792372 112.60015202 -30.5703125 110.63671875 C-32.96120579 108.10920299 -33.4732049 106.73950989 -33.7578125 103.32421875 C-34.7478125 103.32421875 -35.7378125 103.32421875 -36.7578125 103.32421875 C-37.0878125 104.64421875 -37.4178125 105.96421875 -37.7578125 107.32421875 C-38.0878125 106.99421875 -38.4178125 106.66421875 -38.7578125 106.32421875 C-39.4178125 107.64421875 -40.0778125 108.96421875 -40.7578125 110.32421875 C-41.0878125 109.66421875 -41.4178125 109.00421875 -41.7578125 108.32421875 C-41.4278125 107.33421875 -41.0978125 106.34421875 -40.7578125 105.32421875 C-40.68844188 103.09603434 -40.67324166 100.86587351 -40.6953125 98.63671875 C-40.70433594 97.45722656 -40.71335938 96.27773437 -40.72265625 95.0625 C-40.73425781 94.15886719 -40.74585938 93.25523437 -40.7578125 92.32421875 C-41.0878125 92.32421875 -41.4178125 92.32421875 -41.7578125 92.32421875 C-42.62486044 82.56992942 -38.11224586 74.18574465 -32.7578125 66.32421875 C-31.04963987 63.57894131 -29.7807156 61.39292805 -28.7578125 58.32421875 C-27.7678125 58.32421875 -26.7778125 58.32421875 -25.7578125 58.32421875 C-25.73086399 56.36596002 -25.71144032 54.40759649 -25.6953125 52.44921875 C-25.67791016 50.81339844 -25.67791016 50.81339844 -25.66015625 49.14453125 C-25.56036947 46.37244329 -25.56036947 46.37244329 -26.7578125 44.32421875 C-27.8509375 43.89109375 -28.9440625 43.45796875 -30.0703125 43.01171875 C-33.76568172 41.49722317 -35.59945447 39.76160376 -37.7578125 36.32421875 C-40.71564093 28.74278127 -41.2367591 20.13384648 -38.2578125 12.44921875 C-34.94434611 6.14668127 -29.89430895 1.78319835 -23.1953125 -0.61328125 C-16.24910939 -2.339046 -6.30303483 -3.83003108 0 0 Z M-34.98828125 9.89453125 C-39.06108292 16.31649156 -38.57073509 24.01588528 -37.7578125 31.32421875 C-36.50831665 35.32377322 -34.74807163 38.33395962 -31.7578125 41.32421875 C-28.83529174 41.64533661 -28.83529174 41.64533661 -25.5078125 41.57421875 C-24.38890625 41.579375 -23.27 41.58453125 -22.1171875 41.58984375 C-18.69677911 41.31939285 -15.95202403 40.54382679 -12.7578125 39.32421875 C-13.0878125 38.70546875 -13.4178125 38.08671875 -13.7578125 37.44921875 C-14.7578125 35.32421875 -14.7578125 35.32421875 -14.7578125 33.32421875 C-14.438125 33.90171875 -14.1184375 34.47921875 -13.7890625 35.07421875 C-11.64200468 38.22907923 -9.79139975 40.91906761 -5.85595703 41.703125 C-1.13877116 42.04122792 3.53800661 41.73082262 8.2421875 41.32421875 C8.2421875 37.03421875 8.2421875 32.74421875 8.2421875 28.32421875 C9.5621875 27.99421875 10.8821875 27.66421875 12.2421875 27.32421875 C11.84386719 26.52757812 11.84386719 26.52757812 11.4375 25.71484375 C9.70572917 22.25130208 7.97395833 18.78776042 6.2421875 15.32421875 C5.5821875 15.32421875 4.9221875 15.32421875 4.2421875 15.32421875 C4.2421875 16.97421875 4.2421875 18.62421875 4.2421875 20.32421875 C2.2621875 20.32421875 0.2821875 20.32421875 -1.7578125 20.32421875 C-1.4278125 19.00421875 -1.0978125 17.68421875 -0.7578125 16.32421875 C-1.4178125 15.99421875 -2.0778125 15.66421875 -2.7578125 15.32421875 C-0.1178125 14.33421875 2.5221875 13.34421875 5.2421875 12.32421875 C4.50508966 10.7140829 3.75192893 9.11129484 2.9921875 7.51171875 C2.57453125 6.61839844 2.156875 5.72507812 1.7265625 4.8046875 C0.14099083 2.15511379 -1.10252238 0.87020997 -3.7578125 -0.67578125 C-14.70285526 -1.93176976 -28.03662979 1.02289986 -34.98828125 9.89453125 Z " fill="#44444B" transform="translate(280.7578125,116.67578125)"/>
<path d="M0 0 C5.30387185 2.97534275 6.9229063 7.5693863 9 13 C6.36 13.99 3.72 14.98 1 16 C1.66 16.66 2.32 17.32 3 18 C2.67 18.99 2.34 19.98 2 21 C3.98 21 5.96 21 8 21 C8 19.35 8 17.7 8 16 C11 17 11 17 12.1328125 19.21484375 C12.46023438 20.11332031 12.78765625 21.01179688 13.125 21.9375 C13.45757812 22.83339844 13.79015625 23.72929687 14.1328125 24.65234375 C14.41898437 25.42707031 14.70515625 26.20179688 15 27 C15.33 27.66 15.66 28.32 16 29 C14.68 29 13.36 29 12 29 C12 33.29 12 37.58 12 42 C-1.35691318 43.64061341 -1.35691318 43.64061341 -5.73925781 40.92041016 C-9.01576183 38.02482296 -11.55551909 34.61971212 -14 31 C-12.87952194 27.63856582 -11.50292817 26.42471166 -9 24 C-7.15382824 20.30765648 -7.51287841 16.02982407 -8 12 C-9.79517723 8.91308423 -9.79517723 8.91308423 -12 7 C-9.97687064 1.66629533 -5.67643098 -0.99337542 0 0 Z " fill="#F0F0F0" transform="translate(277,116)"/>
<path d="M0 0 C5.01109825 4.1759152 7.64300396 10.10576219 8.23974609 16.61523438 C8.29376122 19.41609222 8.26281796 22.19971702 8.1875 25 C8.16719727 26.44826172 8.16719727 26.44826172 8.14648438 27.92578125 C8.11145458 30.28445425 8.06234084 32.64191771 8 35 C4.60546875 34.6484375 4.60546875 34.6484375 1 34 C-0.6875 31.625 -0.6875 31.625 -2 29 C-2.67804688 28.62488281 -3.35609375 28.24976563 -4.0546875 27.86328125 C-6 26 -6 26 -6.49609375 22.12890625 C-6.49742092 20.60664611 -6.47710882 19.08424533 -6.4375 17.5625 C-6.44458984 16.79873047 -6.45167969 16.03496094 -6.45898438 15.24804688 C-6.4101521 10.932025 -6.21523568 8.19817873 -3 5 C-5.35773159 6.7164286 -6.81232611 8.1066031 -7.42382812 11.01757812 C-7.61779401 13.43296388 -7.70835879 15.82723894 -7.75 18.25 C-7.77964844 19.09046875 -7.80929688 19.9309375 -7.83984375 20.796875 C-7.91031636 22.8640715 -7.95744939 24.93204033 -8 27 C-8.94875 27.433125 -9.8975 27.86625 -10.875 28.3125 C-14.20041937 29.79302201 -14.20041937 29.79302201 -16 33 C-18.625 33.1875 -18.625 33.1875 -21 33 C-21.81785325 10.66806265 -21.81785325 10.66806265 -14.875 2.5 C-10.47182992 -1.02253606 -5.41886167 -0.80773191 0 0 Z " fill="#F0F0F0" transform="translate(263,185)"/>
<path d="M0 0 C4.51125586 2.19093497 8.44151751 4.58080297 11 9 C11.83357473 14.81249408 11.78731834 20.24367447 9.375 25.625 C5.64784928 29.35215072 2.25769307 31.12645327 -3 31.4375 C-7.26543541 31.25027669 -9.74624072 29.81006484 -13 27 C-16.6824303 22.83303939 -17.60837837 19.64348887 -17.30859375 14.23828125 C-16.69993022 9.82354452 -15.66432024 6.45122847 -12.23046875 3.45703125 C-8.20682337 0.71048937 -4.94291989 -1.02977498 0 0 Z " fill="#FCFEFC" transform="translate(137,194)"/>
<path d="M0 0 C4.62 0 9.24 0 14 0 C14.66 0.66 15.32 1.32 16 2 C15.44444444 6.55555556 15.44444444 6.55555556 14 8 C11.67182036 8.36760731 9.3381615 8.70241581 7 9 C6.979375 10.299375 6.95875 11.59875 6.9375 12.9375 C6.92589844 13.66839844 6.91429687 14.39929688 6.90234375 15.15234375 C6.79438816 17.01732141 6.79438816 17.01732141 8 18 C9.51165654 18.39148761 11.03469632 18.73972457 12.5625 19.0625 C13.38878906 19.23910156 14.21507812 19.41570312 15.06640625 19.59765625 C15.70449219 19.73042969 16.34257812 19.86320312 17 20 C17.125 23.375 17.125 23.375 17 27 C15 29 15 29 11.5234375 29.1953125 C10.14047367 29.18387695 8.75761943 29.15791258 7.375 29.125 C3.724375 29.063125 3.724375 29.063125 0 29 C0 19.43 0 9.86 0 0 Z " fill="#FCFEFC" transform="translate(181,195)"/>
<path d="M0 0 C2.91257629 0.31206175 3.96069399 0.96069399 6.0625 3.0625 C10.84007091 10.30591395 11.41491447 16.54484647 11.1875 25 C11.17396484 25.96550781 11.16042969 26.93101562 11.14648438 27.92578125 C11.11145458 30.28445425 11.06234084 32.64191771 11 35 C7.60546875 34.6484375 7.60546875 34.6484375 4 34 C2.3125 31.625 2.3125 31.625 1 29 C0.32324219 28.62488281 -0.35351562 28.24976563 -1.05078125 27.86328125 C-3 26 -3 26 -3.53125 22.12890625 C-3.54186645 20.60677221 -3.53066725 19.0843621 -3.5 17.5625 C-3.51546875 16.79873047 -3.5309375 16.03496094 -3.546875 15.24804688 C-3.50763751 9.61256259 -3.50763751 9.61256259 -1.015625 6.60546875 C-0.35046875 6.07566406 0.3146875 5.54585937 1 5 C1.7872678 2.8618034 1.7872678 2.8618034 2 1 C1.34 0.67 0.68 0.34 0 0 Z " fill="#ECECEC" transform="translate(260,185)"/>
<path d="M0 0 C-1.75864246 2.1793144 -2.69396 2.93686419 -5.48046875 3.51171875 C-6.37378906 3.56972656 -7.26710938 3.62773438 -8.1875 3.6875 C-9.53908203 3.78611328 -9.53908203 3.78611328 -10.91796875 3.88671875 C-11.94857422 3.94279297 -11.94857422 3.94279297 -13 4 C-13.12632812 4.60457031 -13.25265625 5.20914063 -13.3828125 5.83203125 C-14.24868037 8.87352915 -15.87830525 10.69109689 -18 13 C-18.99 13.33 -19.98 13.66 -21 14 C-21.28900646 19.63869302 -21.28900646 19.63869302 -19.8125 25 C-18.14402846 27.28217854 -18.14402846 27.28217854 -15.3125 27.3125 C-14.549375 27.209375 -13.78625 27.10625 -13 27 C-12.67 27.66 -12.34 28.32 -12 29 C-12.33 29.66 -12.66 30.32 -13 31 C-12.34 31 -11.68 31 -11 31 C-11 30.34 -11 29.68 -11 29 C-8.375 28.5625 -8.375 28.5625 -5 29 C-2.61001246 31.05086769 -0.6932063 33.34610927 1 36 C1 36.66 1 37.32 1 38 C-3.30716788 39.62006768 -7.02493146 40.34592955 -11.625 40.4375 C-13.28402344 40.49744141 -13.28402344 40.49744141 -14.9765625 40.55859375 C-18 40 -18 40 -20.2734375 37.78515625 C-24.80352842 30.47756615 -24.69375684 23.3606593 -24 15 C-22.56793968 9.09048527 -19.09257798 5.57131739 -14.15625 2.19140625 C-9.53797991 -0.36035531 -5.16365161 -1.56508909 0 0 Z " fill="#E8E8E9" transform="translate(267,118)"/>
<path d="M0 0 C0.66 0.33 1.32 0.66 2 1 C1.35289062 1.48597656 0.70578125 1.97195312 0.0390625 2.47265625 C-2.77875884 5.96524323 -2.66171299 9.13840868 -2.625 13.4375 C-2.65722656 14.18837891 -2.68945312 14.93925781 -2.72265625 15.71289062 C-2.76159614 19.9961959 -2.76159614 19.9961959 -0.62011719 23.54345703 C0.89199417 24.73205309 2.44425836 25.86911129 4 27 C4 27.99 4 28.98 4 30 C5.98 30 7.96 30 10 30 C9.34 32.97 8.68 35.94 8 39 C7.67 38.34 7.34 37.68 7 37 C2.92035719 38.30155006 2.92035719 38.30155006 -1 40 C-4.75225691 40.41691743 -6.54011122 40.27593327 -9.8125 38.3125 C-12.20339329 35.78498424 -12.7153924 34.41529114 -13 31 C-14.65 30.67 -16.3 30.34 -18 30 C-18 29.67 -18 29.34 -18 29 C-17.278125 28.938125 -16.55625 28.87625 -15.8125 28.8125 C-12.16550304 27.7589231 -10.61350972 25.68228629 -8 23 C-7.01 23 -6.02 23 -5 23 C-5.05800781 21.75863281 -5.11601562 20.51726562 -5.17578125 19.23828125 C-5.22269238 17.59639186 -5.26819109 15.95446168 -5.3125 14.3125 C-5.3753418 13.08756836 -5.3753418 13.08756836 -5.43945312 11.83789062 C-5.53197233 7.26744186 -5.48446766 5.59262788 -2.48046875 1.91796875 C-1.66191406 1.28503906 -0.84335937 0.65210938 0 0 Z " fill="#4C4C53" transform="translate(260,189)"/>
<path d="M0 0 C0.33 0 0.66 0 1 0 C1.07347656 0.95712891 1.07347656 0.95712891 1.1484375 1.93359375 C1.22320312 2.75988281 1.29796875 3.58617187 1.375 4.4375 C1.44460938 5.26121094 1.51421875 6.08492187 1.5859375 6.93359375 C1.72257812 7.61550781 1.85921875 8.29742187 2 9 C2.66 9.33 3.32 9.66 4 10 C4 11.32 4 12.64 4 14 C1.69 14 -0.62 14 -3 14 C-3 14.99 -3 15.98 -3 17 C-1.72253906 17.12246094 -0.44507813 17.24492187 0.87109375 17.37109375 C6.01442683 17.9425752 11.01177101 18.95361225 16.0625 20.0625 C16.92810547 20.24876953 17.79371094 20.43503906 18.68554688 20.62695312 C20.79122451 21.08066267 22.89574007 21.53976004 25 22 C25 21.34 25 20.68 25 20 C23.845 19.896875 22.69 19.79375 21.5 19.6875 C16.93206904 19.10124148 13.17308366 17.97672384 9 16 C8.27734375 13.89453125 8.27734375 13.89453125 8 12 C7.34 12.66 6.68 13.32 6 14 C6 12.68 6 11.36 6 10 C8.475 10.495 8.475 10.495 11 11 C11 11.99 11 12.98 11 14 C11.66 14 12.32 14 13 14 C13.33 12.68 13.66 11.36 14 10 C14.66 11.32 15.32 12.64 16 14 C17.485 8.06 17.485 8.06 19 2 C19.33 2 19.66 2 20 2 C19.47462276 7.0302076 18.89405214 12.01885239 18 17 C18.99 17 19.98 17 21 17 C21 13.04 21 9.08 21 5 C21.33 5 21.66 5 22 5 C22.12117188 5.92683594 22.24234375 6.85367188 22.3671875 7.80859375 C22.61855469 9.60490234 22.61855469 9.60490234 22.875 11.4375 C23.03742188 12.63246094 23.19984375 13.82742187 23.3671875 15.05859375 C23.57601562 16.02925781 23.78484375 16.99992187 24 18 C24.66 18.33 25.32 18.66 26 19 C27.0064275 20.66279327 28.00585407 22.32983484 29 24 C30.58245275 25.75149165 30.58245275 25.75149165 32 27 C29 27 29 27 26.04296875 25.671875 C21.00147788 23.41943493 15.69144839 22.39850572 10.3125 21.25 C9.28060547 21.01667969 8.24871094 20.78335938 7.18554688 20.54296875 C6.19232422 20.32769531 5.19910156 20.11242187 4.17578125 19.890625 C3.27770752 19.69500977 2.37963379 19.49939453 1.4543457 19.29785156 C-1.03223302 18.9960883 -2.64163065 19.21834154 -5 20 C-5 20.33 -5 20.66 -5 21 C-2.03 21 0.94 21 4 21 C4 21.33 4 21.66 4 22 C2.96939453 22.19916016 2.96939453 22.19916016 1.91796875 22.40234375 C0.56638672 22.66724609 0.56638672 22.66724609 -0.8125 22.9375 C-1.70582031 23.11152344 -2.59914062 23.28554687 -3.51953125 23.46484375 C-6.11397171 23.97741153 -6.11397171 23.97741153 -9 25 C-9.98820965 27.03010445 -9.98820965 27.03010445 -10.625 29.4375 C-11.96812749 33.93625498 -11.96812749 33.93625498 -13 36 C-13.15123831 37.5195764 -13.24881693 39.04472502 -13.31640625 40.5703125 C-13.35830078 41.46621094 -13.40019531 42.36210937 -13.44335938 43.28515625 C-13.50233398 44.69087891 -13.50233398 44.69087891 -13.5625 46.125 C-13.60568359 47.06988281 -13.64886719 48.01476562 -13.69335938 48.98828125 C-13.79959072 51.32537092 -13.90163176 53.6625683 -14 56 C-12.02 56 -10.04 56 -8 56 C-9.98 56.495 -9.98 56.495 -12 57 C-12.33 58.32 -12.66 59.64 -13 61 C-13.33 60.67 -13.66 60.34 -14 60 C-14.66 61.32 -15.32 62.64 -16 64 C-16.33 63.34 -16.66 62.68 -17 62 C-16.67 61.01 -16.34 60.02 -16 59 C-15.93062938 56.77181559 -15.91542916 54.54165476 -15.9375 52.3125 C-15.94652344 51.13300781 -15.95554688 49.95351562 -15.96484375 48.73828125 C-15.97644531 47.83464844 -15.98804688 46.93101562 -16 46 C-16.33 46 -16.66 46 -17 46 C-17.86704794 36.24571067 -13.35443336 27.8615259 -8 20 C-6.29182737 17.25472256 -5.0229031 15.0687093 -4 12 C-3.01 12 -2.02 12 -1 12 C-0.67 8.04 -0.34 4.08 0 0 Z " fill="#35363D" transform="translate(256,163)"/>
<path d="M0 0 C0.33 0.33 0.66 0.66 1 1 C0.78633888 5.70054457 0.03548394 10.41428541 -1 15 C-1.66 15 -2.32 15 -3 15 C-3 16.32 -3 17.64 -3 19 C-3.66 19 -4.32 19 -5 19 C-5.33 18.01 -5.66 17.02 -6 16 C-8.01508358 15.26676204 -8.01508358 15.26676204 -10 15 C-9.67 15.66 -9.34 16.32 -9 17 C-8.01 17 -7.02 17 -6 17 C-6 18.32 -6 19.64 -6 21 C-1.05 22.32 3.9 23.64 9 25 C9 25.66 9 26.32 9 27 C-0.41030923 25.65113611 -9.69503742 23.93049016 -19 22 C-19 21.01 -19 20.02 -19 19 C-16.69 19 -14.38 19 -12 19 C-12.3403125 17.0509375 -12.3403125 17.0509375 -12.6875 15.0625 C-13.30424986 9.81179172 -12.01293571 5.81057518 -10 1 C-9.67 2.32 -9.34 3.64 -9 5 C-8.731875 4.195625 -8.46375 3.39125 -8.1875 2.5625 C-7.795625 1.716875 -7.40375 0.87125 -7 0 C-3.86350275 -1.04549908 -3.0051095 -1.00170317 0 0 Z " fill="#606066" transform="translate(272,158)"/>
<path d="M0 0 C4.64754741 1.89344524 7.88473519 4.80664587 10.171875 9.3046875 C13.48945208 17.21398358 14.17329406 24.50859126 14 33 C12.68 33 11.36 33 10 33 C10 36.3 10 39.6 10 43 C3.4 43 -3.2 43 -10 43 C-10 42.34 -10 41.68 -10 41 C-9.01 41 -8.02 41 -7 41 C-6.773125 40.2575 -6.54625 39.515 -6.3125 38.75 C-4.68623889 35.34259578 -3.16402874 34.05140325 0 32 C3.33203125 31.609375 3.33203125 31.609375 6.8125 31.75 C7.97394531 31.78609375 9.13539063 31.8221875 10.33203125 31.859375 C11.21246094 31.90578125 12.09289062 31.9521875 13 32 C11.11376855 19.63981665 8.7118506 9.45858065 0 0 Z " fill="#3A3A42" transform="translate(287,190)"/>
<path d="M0 0 C1.98 0 3.96 0 6 0 C5.67 0.66 5.34 1.32 5 2 C5.78375 2.433125 6.5675 2.86625 7.375 3.3125 C10 5 10 5 12 8 C12.07905064 10.33199388 12.08798769 12.66832622 12 15 C11.731875 14.4225 11.46375 13.845 11.1875 13.25 C10.795625 12.5075 10.40375 11.765 10 11 C9.608125 10.2575 9.21625 9.515 8.8125 8.75 C6.99375 6.64375 6.99375 6.64375 3.5 6.5625 C0.13786435 6.75112332 0.13786435 6.75112332 -1.9375 8.125 C-3.51108304 10.90191125 -3.38420899 12.86229327 -3 16 C-2.00965774 18.40383995 -2.00965774 18.40383995 0 20 C3.10197397 20.80946422 3.10197397 20.80946422 6 21 C5.34 21.33 4.68 21.66 4 22 C4 22.66 4 23.32 4 24 C1.8125 24.3125 1.8125 24.3125 -1 24 C-5.08007706 20.47629709 -6.87049311 18.57998408 -7.3125 13.1875 C-7.26469894 7.91982317 -4.58120219 5.58120219 -1 2 C-0.67 1.34 -0.34 0.68 0 0 Z " fill="#DEDEDE" transform="translate(257,122)"/>
<path d="M0 0 C0.33 0 0.66 0 1 0 C0.47462276 5.0302076 -0.10594786 10.01885239 -1 15 C-0.01 15 0.98 15 2 15 C2 11.04 2 7.08 2 3 C2.33 3 2.66 3 3 3 C3.12117188 3.92683594 3.24234375 4.85367188 3.3671875 5.80859375 C3.53476562 7.00613281 3.70234375 8.20367187 3.875 9.4375 C4.03742188 10.63246094 4.19984375 11.82742187 4.3671875 13.05859375 C4.57601563 14.02925781 4.78484375 14.99992188 5 16 C5.66 16.33 6.32 16.66 7 17 C8.0064275 18.66279327 9.00585407 20.32983484 10 22 C11.58245275 23.75149165 11.58245275 23.75149165 13 25 C9.76936473 25 7.85454862 24.073548 4.95263672 22.77490234 C1.74631853 21.5024775 -1.55290622 20.92033186 -4.9375 20.3125 C-5.62134766 20.18294922 -6.30519531 20.05339844 -7.00976562 19.91992188 C-8.67183798 19.60610402 -10.33574127 19.30200834 -12 19 C-9 17 -9 17 -5.42578125 17.4609375 C-4.05193491 17.75296281 -2.68083414 18.05814952 -1.3125 18.375 C-0.61060547 18.52710938 0.09128906 18.67921875 0.81445312 18.8359375 C2.5454462 19.21275232 4.27308587 19.60491263 6 20 C6 19.34 6 18.68 6 18 C4.845 17.896875 3.69 17.79375 2.5 17.6875 C-2.06793096 17.10124148 -5.82691634 15.97672384 -10 14 C-10.72265625 11.89453125 -10.72265625 11.89453125 -11 10 C-11.66 10.66 -12.32 11.32 -13 12 C-13 10.68 -13 9.36 -13 8 C-10.525 8.495 -10.525 8.495 -8 9 C-8 9.99 -8 10.98 -8 12 C-7.34 12 -6.68 12 -6 12 C-5.67 10.68 -5.34 9.36 -5 8 C-4.34 9.32 -3.68 10.64 -3 12 C-2.01 8.04 -1.02 4.08 0 0 Z " fill="#45454C" transform="translate(275,165)"/>
<path d="M0 0 C0.33 0.33 0.66 0.66 1 1 C0.78633888 5.70054457 0.03548394 10.41428541 -1 15 C-1.99 14.34 -2.98 13.68 -4 13 C-5.9896995 12.60986284 -7.99019869 12.26797351 -10 12 C-9.77192509 10.20541055 -9.51677697 8.41424551 -9.25 6.625 C-9.11078125 5.62726563 -8.9715625 4.62953125 -8.828125 3.6015625 C-8 1 -8 1 -6.05859375 -0.37109375 C-3.61166955 -1.11863606 -2.37010479 -0.89900526 0 0 Z " fill="#EBEBEB" transform="translate(272,158)"/>
<path d="M0 0 C-4.1725249 2.39946724 -8.77697633 3.27330831 -13.42382812 4.32421875 C-18.58519599 5.5977358 -21.93617648 7.55771027 -25.36328125 11.61328125 C-29.0888273 18.28246862 -28.81927436 25.56974937 -28 33 C-26.63838747 37.49000033 -24.39002498 40.77510518 -21 44 C-24.00148136 43.67841271 -24.98205792 43.01846979 -27.125 40.8125 C-31.64823914 34.02764129 -31.74042757 26.90738669 -31 19 C-29.30264137 11.85605387 -25.14796703 6.90464687 -19 3 C-12.7038958 0.1510382 -6.83413727 -0.33068406 0 0 Z " fill="#45454C" transform="translate(272,115)"/>
<path d="M0 0 C2 2 2 2 2.3125 5.5 C2.1578125 7.2325 2.1578125 7.2325 2 9 C-1 11 -1 11 -4.625 10.6875 C-8 10 -8 10 -9 9 C-9.3125 5.625 -9.3125 5.625 -9 2 C-6.17266771 -1.35091234 -4.03066587 -1.37891201 0 0 Z " fill="#D5D5D6" transform="translate(264,130)"/>
<path d="M0 0 C3.58387787 -0.33338399 5.45466703 -0.35845874 8.5078125 1.6484375 C11.24698978 4.23305305 12.57838813 6.48421734 14.1875 9.875 C14.67605469 10.88304688 15.16460937 11.89109375 15.66796875 12.9296875 C19.56881502 21.92108095 19.56881502 21.92108095 18 26 C17.80664062 25.43410156 17.61328125 24.86820313 17.4140625 24.28515625 C17.15367187 23.55167969 16.89328125 22.81820312 16.625 22.0625 C16.36976563 21.33160156 16.11453125 20.60070312 15.8515625 19.84765625 C15.14728587 17.81317884 15.14728587 17.81317884 13 17 C13 18.65 13 20.3 13 22 C11.02 22 9.04 22 7 22 C7 21.01 7 20.02 7 19 C6.34 18.34 5.68 17.68 5 17 C7.91765 15.0549 9.62537285 14.54723683 13 14 C12.23925157 12.37025436 11.46601567 10.74633352 10.6875 9.125 C10.25824219 8.22007813 9.82898438 7.31515625 9.38671875 6.3828125 C8.0800612 3.73550524 8.0800612 3.73550524 5 2 C3.34450469 1.61500109 1.6777567 1.27206865 0 1 C0 0.67 0 0.34 0 0 Z " fill="#393941" transform="translate(272,115)"/>
<path d="M0 0 C-1.75864246 2.1793144 -2.69396 2.93686419 -5.48046875 3.51171875 C-6.37378906 3.56972656 -7.26710938 3.62773438 -8.1875 3.6875 C-9.53908203 3.78611328 -9.53908203 3.78611328 -10.91796875 3.88671875 C-11.94857422 3.94279297 -11.94857422 3.94279297 -13 4 C-13.12632812 4.60457031 -13.25265625 5.20914063 -13.3828125 5.83203125 C-14.24868037 8.87352915 -15.87830525 10.69109689 -18 13 C-18.99 13.33 -19.98 13.66 -21 14 C-21.33 16.31 -21.66 18.62 -22 21 C-23.125 19.4375 -23.125 19.4375 -24 17 C-22.9106607 10.46396422 -19.94148527 6.22598885 -14.6875 2.25 C-9.77929393 -0.03288654 -5.30423656 -1.65388222 0 0 Z " fill="#D6D6D7" transform="translate(267,118)"/>
<path d="M0 0 C0 2.31 0 4.62 0 7 C-4.29 7 -8.58 7 -13 7 C-12 3 -12 3 -10.4375 1.25 C-6.86000943 -0.58461055 -3.99371657 -0.19968583 0 0 Z " fill="#EFEFF0" transform="translate(295,224)"/>
<path d="M0 0 C0.70491267 2.32206525 1.37212429 4.65593068 2 7 C3.21443275 8.43827256 3.21443275 8.43827256 6.8125 8.1875 C10.03540201 8.1585691 12.25544723 7.82970185 15 6 C15 4.68 15 3.36 15 2 C16.65 2 18.3 2 20 2 C19.67 4.64 19.34 7.28 19 10 C18.67 9.34 18.34 8.68 18 8 C13.92035719 9.30155006 13.92035719 9.30155006 10 11 C6.24774309 11.41691743 4.45988878 11.27593327 1.1875 9.3125 C-1.20339329 6.78498424 -1.7153924 5.41529114 -2 2 C-3.65 1.67 -5.3 1.34 -7 1 C-7 0.67 -7 0.34 -7 0 C-2.25 -1.125 -2.25 -1.125 0 0 Z " fill="#6F6F74" transform="translate(249,218)"/>
<path d="M0 0 C0.33 3.3 0.66 6.6 1 10 C-5.6 10 -12.2 10 -19 10 C-19 9.34 -19 8.68 -19 8 C-18.01 8 -17.02 8 -16 8 C-15.773125 7.2575 -15.54625 6.515 -15.3125 5.75 C-11.73736277 -1.74076372 -7.31235116 -1.30967483 0 0 Z M-14 5 C-14 5.99 -14 6.98 -14 8 C-9.71 8 -5.42 8 -1 8 C-1 5.69 -1 3.38 -1 1 C-6.75394447 0.60990207 -9.87098845 0.48389362 -14 5 Z " fill="#5E5F64" transform="translate(296,223)"/>
<path d="M0 0 C6.59525453 0.57899813 12.6891618 1.79734737 19.0625 3.5625 C19.92810547 3.79646484 20.79371094 4.03042969 21.68554688 4.27148438 C23.79197695 4.8417334 25.89622889 5.42001834 28 6 C28 6.66 28 7.32 28 8 C18.58969077 6.65113611 9.30496258 4.93049016 0 3 C0 2.01 0 1.02 0 0 Z " fill="#E3E3E4" transform="translate(253,177)"/>
<path d="M0 0 C3.71599191 -0.20086443 4.77208445 -0.1519437 8 2 C12.07490752 2.33957563 13.53001271 2.31332486 17 0 C19.6875 -0.125 19.6875 -0.125 22 0 C21 2 20 4 19 6 C11.67372525 6.47266289 6.62615673 5.09866202 0 2 C0 1.34 0 0.68 0 0 Z " fill="#EDF0EC" transform="translate(245,226)"/>
<path d="M0 0 C0.66 1.32 1.32 2.64 2 4 C1.175 4.66 0.35 5.32 -0.5 6 C-3.0397151 9.04765812 -3.36147135 9.45873514 -3.375 13.125 C-3.15441723 16.90904191 -3.15441723 16.90904191 -2 20 C-2.33 20.66 -2.66 21.32 -3 22 C-6 21 -6 21 -7.1875 19.4375 C-8.37040794 15.88877617 -8.12443279 12.73298379 -8 9 C-7.01 8.67 -6.02 8.34 -5 8 C-2.61877243 5.33862801 -1.1344141 3.4032423 0 0 Z " fill="#747479" transform="translate(254,122)"/>
<path d="M0 0 C0 0.66 0 1.32 0 2 C-2 3.625 -2 3.625 -4 5 C-3.72459296 8.81813447 -3.72459296 8.81813447 -2 12 C0.33297433 12.04092937 2.66705225 12.04241723 5 12 C5.061875 10.72125 5.12375 9.4425 5.1875 8.125 C5.22230469 7.40570313 5.25710938 6.68640625 5.29296875 5.9453125 C5.19628906 5.30335938 5.09960938 4.66140625 5 4 C4.01 3.34 3.02 2.68 2 2 C2 1.34 2 0.68 2 0 C4.46800047 1.15173355 6.04783565 2.04783565 8 4 C8.5410628 9.95169082 8.5410628 9.95169082 7 12.9375 C3.75978228 14.65886567 0.58042244 14.52960415 -3 14 C-5 12.9375 -5 12.9375 -6 11 C-6.51940701 6.91894494 -6.67222913 4.87389788 -4.125 1.5625 C-2 0 -2 0 0 0 Z " fill="#E9E9E9" transform="translate(255,213)"/>
<path d="M0 0 C0.33 0 0.66 0 1 0 C0.67 5.28 0.34 10.56 0 16 C-2.97 15.67 -5.94 15.34 -9 15 C-9.33 13.35 -9.66 11.7 -10 10 C-10.99 10.66 -11.98 11.32 -13 12 C-13 10.68 -13 9.36 -13 8 C-10.525 8.495 -10.525 8.495 -8 9 C-8 9.99 -8 10.98 -8 12 C-7.34 12 -6.68 12 -6 12 C-5.67 10.68 -5.34 9.36 -5 8 C-4.34 9.32 -3.68 10.64 -3 12 C-2.01 8.04 -1.02 4.08 0 0 Z " fill="#2B2B33" transform="translate(275,165)"/>
<path d="M0 0 C2.25 0.25 2.25 0.25 4 1 C2.02 2.32 0.04 3.64 -2 5 C-0.79618552 7.49361571 0.45428722 9.68143083 2 12 C2.1953125 14.26171875 2.1953125 14.26171875 2.125 16.6875 C2.10695313 17.49574219 2.08890625 18.30398437 2.0703125 19.13671875 C2.03550781 20.05904297 2.03550781 20.05904297 2 21 C1.67 21 1.34 21 1 21 C0.91363281 20.38511719 0.82726562 19.77023438 0.73828125 19.13671875 C-0.05250103 13.94487716 -0.05250103 13.94487716 -3.3125 10.0625 C-4.199375 9.711875 -5.08625 9.36125 -6 9 C-6.928125 8.608125 -7.85625 8.21625 -8.8125 7.8125 C-9.8953125 7.4103125 -9.8953125 7.4103125 -11 7 C-10.67 7.66 -10.34 8.32 -10 9 C-10.99 9 -11.98 9 -13 9 C-12.67 7.68 -12.34 6.36 -12 5 C-10.7625 4.9175 -9.525 4.835 -8.25 4.75 C-4.18979468 4.27821558 -2.78952038 2.98877184 0 0 Z " fill="#282830" transform="translate(268,116)"/>
<path d="M0 0 C2.625 0.375 2.625 0.375 5 1 C6.125 5.75 6.125 5.75 5 8 C3.00045254 8.04254356 0.99958364 8.04080783 -1 8 C-2 7 -2 7 -2.1875 4.5625 C-2 2 -2 2 0 0 Z " fill="#EBEBEC" transform="translate(254,216)"/>
<path d="M0 0 C2.91257629 0.31206175 3.96069399 0.96069399 6.0625 3.0625 C10.61984644 9.97202525 11.4291563 15.93239747 11.1875 24 C11.17396484 24.87011719 11.16042969 25.74023438 11.14648438 26.63671875 C11.11151678 28.75808627 11.0577253 30.87912974 11 33 C10.67 33 10.34 33 10 33 C9.96261719 32.04480469 9.92523438 31.08960938 9.88671875 30.10546875 C9.449137 21.4996944 8.92846086 12.85692172 5 5 C4.01 4.67 3.02 4.34 2 4 C2 3.01 2 2.02 2 1 C1.34 0.67 0.68 0.34 0 0 Z " fill="#424249" transform="translate(260,185)"/>
<path d="M0 0 C0.66 0.33 1.32 0.66 2 1 C1.83371094 1.70898438 1.66742188 2.41796875 1.49609375 3.1484375 C0.83213572 6.96488917 1.02799997 10.61759926 1.16015625 14.4765625 C1 17 1 17 -1 20 C-1.99 20 -2.98 20 -4 20 C-3.56615452 12.96871122 -2.25678003 6.670985 0 0 Z " fill="#E3E3E4" transform="translate(278,160)"/>
<path d="M0 0 C0 0.66 0 1.32 0 2 C-0.66 2 -1.32 2 -2 2 C-2 3.65 -2 5.3 -2 7 C-3.98 7 -5.96 7 -8 7 C-8 6.01 -8 5.02 -8 4 C-8.66 3.34 -9.32 2.68 -10 2 C-6.70021068 -0.19985954 -3.76967739 -1.88483869 0 0 Z " fill="#86868B" transform="translate(287,130)"/>
<path d="M0 0 C1.23556641 0.01740234 1.23556641 0.01740234 2.49609375 0.03515625 C3.32238281 0.04417969 4.14867187 0.05320313 5 0.0625 C5.63808594 0.07410156 6.27617187 0.08570313 6.93359375 0.09765625 C6.81900682 1.53602376 6.69150259 2.97336591 6.55859375 4.41015625 C6.48898437 5.21066406 6.419375 6.01117188 6.34765625 6.8359375 C5.93359375 9.09765625 5.93359375 9.09765625 3.93359375 12.09765625 C3.93359375 9.78765625 3.93359375 7.47765625 3.93359375 5.09765625 C3.27359375 5.09765625 2.61359375 5.09765625 1.93359375 5.09765625 C1.60359375 4.43765625 1.27359375 3.77765625 0.93359375 3.09765625 C-1.08310452 1.96415091 -1.08310452 1.96415091 -3.06640625 1.09765625 C-2.06640625 0.09765625 -2.06640625 0.09765625 0 0 Z " fill="#525259" transform="translate(253.06640625,157.90234375)"/>
<path d="M0 0 C2.5 0.125 2.5 0.125 3.5 1.125 C3.625 3.625 3.625 3.625 3.5 6.125 C2.5 7.125 2.5 7.125 0 7.25 C-2.5 7.125 -2.5 7.125 -3.5 6.125 C-3.625 3.625 -3.625 3.625 -3.5 1.125 C-2.5 0.125 -2.5 0.125 0 0 Z " fill="#2C2C34" transform="translate(260.5,131.875)"/>
<path d="M0 0 C0.33 0 0.66 0 1 0 C0.46048934 6.68993219 -0.88706171 12.63460728 -3 19 C-5.22695992 15.50167864 -5.04194094 13.32036328 -4.25 9.3125 C-4.06953125 8.33925781 -3.8890625 7.36601562 -3.703125 6.36328125 C-3.47109375 5.58339844 -3.2390625 4.80351562 -3 4 C-2.34 3.67 -1.68 3.34 -1 3 C-0.67 2.01 -0.34 1.02 0 0 Z " fill="#8C8C90" transform="translate(275,160)"/>
<path d="M0 0 C0.66 1.98 1.32 3.96 2 6 C-0.64 6.33 -3.28 6.66 -6 7 C-5.625 4.0625 -5.625 4.0625 -5 1 C-3 0 -3 0 0 0 Z " fill="#ACACAE" transform="translate(247,220)"/>
<path d="M0 0 C3.13437975 -0.51173547 5.88046695 -0.66351973 9 0 C11.83321933 2.32387653 13.8590159 5.04650948 16 8 C16.66 8.66 17.32 9.32 18 10 C17.01 11.485 17.01 11.485 16 13 C15.7525 12.38125 15.505 11.7625 15.25 11.125 C14.19197336 8.85109061 14.19197336 8.85109061 12 8.125 C10 7 10 7 8.75 3.875 C8.5025 2.92625 8.255 1.9775 8 1 C5.36 1 2.72 1 0 1 C0 0.67 0 0.34 0 0 Z " fill="#36363E" transform="translate(257,149)"/>
<path d="M0 0 C2.46800047 1.15173355 4.04783565 2.04783565 6 4 C6.375 7.4375 6.375 7.4375 6 11 C4 12.9375 4 12.9375 2 14 C1.67 13.34 1.34 12.68 1 12 C1.66 12 2.32 12 3 12 C3.0928125 10.081875 3.0928125 10.081875 3.1875 8.125 C3.22230469 7.40570313 3.25710938 6.68640625 3.29296875 5.9453125 C3.19628906 5.30335938 3.09960938 4.66140625 3 4 C2.01 3.34 1.02 2.68 0 2 C0 1.34 0 0.68 0 0 Z " fill="#DCDCDD" transform="translate(257,213)"/>
<path d="M0 0 C0.33 0 0.66 0 1 0 C1.07347656 0.95712891 1.07347656 0.95712891 1.1484375 1.93359375 C1.22320312 2.75988281 1.29796875 3.58617187 1.375 4.4375 C1.44460938 5.26121094 1.51421875 6.08492187 1.5859375 6.93359375 C1.72257812 7.61550781 1.85921875 8.29742187 2 9 C2.66 9.33 3.32 9.66 4 10 C4 11.32 4 12.64 4 14 C1.69 13.67 -0.62 13.34 -3 13 C-2.34 12.67 -1.68 12.34 -1 12 C-0.53101037 9.1840151 -0.53101037 9.1840151 -0.375 5.9375 C-0.30023438 4.83277344 -0.22546875 3.72804687 -0.1484375 2.58984375 C-0.09945312 1.73519531 -0.05046875 0.88054687 0 0 Z " fill="#1F1F28" transform="translate(256,163)"/>
<path d="M0 0 C3.63 0.66 7.26 1.32 11 2 C10.67 2.66 10.34 3.32 10 4 C5.71 4 1.42 4 -3 4 C-2.01 2.68 -1.02 1.36 0 0 Z " fill="#D0D0D2" transform="translate(252,181)"/>
<path d="M0 0 C0.12375 0.639375 0.2475 1.27875 0.375 1.9375 C0.684375 2.9584375 0.684375 2.9584375 1 4 C1.66 4.33 2.32 4.66 3 5 C1.02 7.97 1.02 7.97 -1 11 C-1.99 10.34 -2.98 9.68 -4 9 C-3.01 8.67 -2.02 8.34 -1 8 C-1.020625 6.865625 -1.04125 5.73125 -1.0625 4.5625 C-1 1 -1 1 0 0 Z " fill="#525259" transform="translate(267,133)"/>
<path d="M0 0 C0.66 0.66 1.32 1.32 2 2 C2.99 2 3.98 2 5 2 C4.67 3.32 4.34 4.64 4 6 C1.69 5.67 -0.62 5.34 -3 5 C-2.34 4.67 -1.68 4.34 -1 4 C-0.34786708 1.97536745 -0.34786708 1.97536745 0 0 Z " fill="#727278" transform="translate(261,173)"/>
<path d="M0 0 C3.16115776 1.36983503 3.9927092 1.9890638 6 5 C6.1953125 7.26171875 6.1953125 7.26171875 6.125 9.6875 C6.10695313 10.49574219 6.08890625 11.30398437 6.0703125 12.13671875 C6.03550781 13.05904297 6.03550781 13.05904297 6 14 C5.67 14 5.34 14 5 14 C4.89042969 13.38511719 4.78085937 12.77023438 4.66796875 12.13671875 C4.43013672 10.92435547 4.43013672 10.92435547 4.1875 9.6875 C3.96126953 8.48673828 3.96126953 8.48673828 3.73046875 7.26171875 C2.91786593 4.74569185 1.89891233 3.77405234 0 2 C0 1.34 0 0.68 0 0 Z " fill="#36363E" transform="translate(264,123)"/>
<path d="M0 0 C0.66 0.33 1.32 0.66 2 1 C1.83628906 1.70511719 1.67257812 2.41023437 1.50390625 3.13671875 C0.98300176 6.09658688 0.90133268 8.81061273 0.9375 11.8125 C0.94652344 12.78832031 0.95554687 13.76414063 0.96484375 14.76953125 C0.97644531 15.50558594 0.98804688 16.24164063 1 17 C0.67 17 0.34 17 0 17 C-0.06058594 16.38511719 -0.12117188 15.77023438 -0.18359375 15.13671875 C-0.26738281 14.32847656 -0.35117187 13.52023438 -0.4375 12.6875 C-0.51871094 11.88699219 -0.59992188 11.08648437 -0.68359375 10.26171875 C-0.95265693 7.83912821 -0.95265693 7.83912821 -2 5 C-1.0625 2.3125 -1.0625 2.3125 0 0 Z " fill="#939397" transform="translate(278,160)"/>
<path d="M0 0 C1.65 0 3.3 0 5 0 C5 1.32 5 2.64 5 4 C3.02 4 1.04 4 -1 4 C-0.67 2.68 -0.34 1.36 0 0 Z " fill="#4E4E55" transform="translate(280,133)"/>
<path d="M0 0 C2.97851562 0.43945312 2.97851562 0.43945312 5.95703125 0.87890625 C8.2025342 1.13904799 8.2025342 1.13904799 11 0 C11 0.66 11 1.32 11 2 C7.5647952 4.29013653 6.014669 4.17842973 2 4 C1.34 2.68 0.68 1.36 0 0 Z " fill="#35353D" transform="translate(255,139)"/>
<path d="M0 0 C0.33 0 0.66 0 1 0 C1.1875 2.875 1.1875 2.875 1 6 C-2.22791555 8.1519437 -3.28400809 8.20086443 -7 8 C-7.33 7.34 -7.66 6.68 -8 6 C-5.69 5.34 -3.38 4.68 -1 4 C-0.67 2.68 -0.34 1.36 0 0 Z " fill="#E0E0E1" transform="translate(265,133)"/>
<path d="M0 0 C1.32 0 2.64 0 4 0 C3.34 3.3 2.68 6.6 2 10 C1.67 10 1.34 10 1 10 C0.67 6.7 0.34 3.4 0 0 Z " fill="#CACACC" transform="translate(256,160)"/>
<path d="M0 0 C2.375 0.3125 2.375 0.3125 5 1 C5.66 1.99 6.32 2.98 7 4 C6.34 5.32 5.68 6.64 5 8 C4.67 6.68 4.34 5.36 4 4 C2.68 3.67 1.36 3.34 0 3 C0 2.01 0 1.02 0 0 Z " fill="#C7C7C9" transform="translate(259,129)"/>
<path d="M0 0 C0 0.33 0 0.66 0 1 C-1.60341555 1.33692785 -3.20776555 1.66941093 -4.8125 2 C-5.70582031 2.185625 -6.59914062 2.37125 -7.51953125 2.5625 C-10 3 -10 3 -13 3 C-13.33 2.34 -13.66 1.68 -14 1 C-9.32798795 -0.20568053 -4.78503708 -0.09382426 0 0 Z " fill="#3E3E45" transform="translate(260,184)"/>
<path d="M0 0 C0.66 0.66 1.32 1.32 2 2 C0.68 4.31 -0.64 6.62 -2 9 C-2.66 8.34 -3.32 7.68 -4 7 C-2.68 4.69 -1.36 2.38 0 0 Z " fill="#292932" transform="translate(246,186)"/>
<path d="M0 0 C1.98 0.495 1.98 0.495 4 1 C4 1.99 4 2.98 4 4 C2.35 4 0.7 4 -1 4 C-0.67 2.68 -0.34 1.36 0 0 Z " fill="#D0D0D2" transform="translate(259,133)"/>
<path d="M0 0 C-1.75 1.5625 -1.75 1.5625 -4 3 C-6.25 2.6875 -6.25 2.6875 -8 2 C-8 1.34 -8 0.68 -8 0 C-4.94736336 -0.98120464 -3.05263664 -0.98120464 0 0 Z " fill="#E9E9E9" transform="translate(267,118)"/>
<path d="M0 0 C3.71599191 -0.20086443 4.77208445 -0.1519437 8 2 C8 2.66 8 3.32 8 4 C5.36 3.34 2.72 2.68 0 2 C0 1.34 0 0.68 0 0 Z " fill="#DEE7DA" transform="translate(245,226)"/>
<path d="M0 0 C2.475 0.495 2.475 0.495 5 1 C5.33 2.65 5.66 4.3 6 6 C5.34 6 4.68 6 4 6 C3.67 5.01 3.34 4.02 3 3 C2.01 2.67 1.02 2.34 0 2 C0 1.34 0 0.68 0 0 Z " fill="#D1D1D2" transform="translate(263,171)"/>
</svg>
